HIERARCHY
ROOT RootJoint
{
    OFFSET   0.000000   0.000000   0.000000
    CHANNELS 6 Xposition Yposition Zposition Xrotation Yrotation Zrotation
    JOINT pelvis_lowerback
    {
        OFFSET   0.000000   0.093605   0.000000
        CHANNELS 3 Xrotation Yrotation Zrotation
        JOINT lowerback_torso
        {
            OFFSET   0.000000   0.100000   0.000000
            CHANNELS 3 Xrotation Yrotation Zrotation
            JOINT torso_head
            {
                OFFSET   0.000000   0.282350   0.000000
                CHANNELS 3 Xrotation Yrotation Zrotation
                End Site
                {
                    OFFSET   0.000000   0.192650   0.000000
                }
            }
            JOINT rTorso_Clavicle
            {
                OFFSET  -0.001000   0.157500   0.000000
                CHANNELS 3 Xrotation Yrotation Zrotation
                JOINT rShoulder
                {
                    OFFSET  -0.117647   0.000000   0.000000
                    CHANNELS 3 Xrotation Yrotation Zrotation
                    JOINT rElbow
                    {
                        OFFSET  -0.245000   0.000000   0.000000
                        CHANNELS 3 Xrotation Yrotation Zrotation
                        JOINT rWrist
                        {
                            OFFSET  -0.240000   0.000000   0.000000
                            CHANNELS 3 Xrotation Yrotation Zrotation
                            End Site
                            {
                                OFFSET  -0.116353  -0.002500   0.000000
                            }
                        }
                    }
                }
            }
            JOINT lTorso_Clavicle
            {
                OFFSET   0.001000   0.157500   0.000000
                CHANNELS 3 Xrotation Yrotation Zrotation
                JOINT lShoulder
                {
                    OFFSET   0.117647   0.000000   0.000000
                    CHANNELS 3 Xrotation Yrotation Zrotation
                    JOINT lElbow
                    {
                        OFFSET   0.245000   0.000000   0.000000
                        CHANNELS 3 Xrotation Yrotation Zrotation
                        JOINT lWrist
                        {
                            OFFSET   0.240000   0.000000   0.000000
                            CHANNELS 3 Xrotation Yrotation Zrotation
                            End Site
                            {
                                OFFSET   0.116353  -0.002500   0.000000
                            }
                        }
                    }
                }
            }
        }
    }
    JOINT rHip
    {
        OFFSET  -0.100000  -0.051395   0.000000
        CHANNELS 3 Xrotation Yrotation Zrotation
        JOINT rKnee
        {
            OFFSET   0.000000  -0.410000   0.000000
            CHANNELS 3 Xrotation Yrotation Zrotation
            JOINT rAnkle
            {
                OFFSET   0.000000  -0.390000   0.000000
                CHANNELS 3 Xrotation Yrotation Zrotation
                JOINT rToeJoint
                {
                    OFFSET   0.000000  -0.050000   0.130000
                    CHANNELS 3 Xrotation Yrotation Zrotation
                    End Site
                    {
                        OFFSET  -0.010000   0.002000   0.060000
                    }
                }
            }
        }
    }
    JOINT lHip
    {
        OFFSET   0.100000  -0.051395   0.000000
        CHANNELS 3 Xrotation Yrotation Zrotation
        JOINT lKnee
        {
            OFFSET   0.000000  -0.410000   0.000000
            CHANNELS 3 Xrotation Yrotation Zrotation
            JOINT lAnkle
            {
                OFFSET   0.000000  -0.390000   0.000000
                CHANNELS 3 Xrotation Yrotation Zrotation
                JOINT lToeJoint
                {
                    OFFSET   0.000000  -0.050000   0.130000
                    CHANNELS 3 Xrotation Yrotation Zrotation
                    End Site
                    {
                        OFFSET   0.010000   0.002000   0.060000
                    }
                }
            }
        }
    }
}
MOTION
Frames: 10
Frame Time:   0.008333
 -2.376719   0.925631   3.975860   0.000000   0.000000   0.000000   0.000000   0.000000   0.000000   0.000000   0.000000   0.000000   0.000000   0.000000   0.000000   0.000000   0.000000   0.000000   0.000000   0.000000   0.000000   0.000000   0.000000   0.000000   0.000000   0.000000   0.000000   0.000000   0.000000   0.000000   0.000000   0.000000   0.000000   0.000000   0.000000   0.000000   0.000000   0.000000   0.000000   0.000000   0.000000   0.000000   0.000000   0.000000   0.000000   0.000000   0.000000   0.000000   0.000000   0.000000   0.000000   0.000000   0.000000   0.000000   0.000000   0.000000   0.000000   0.000000   0.000000   0.000000   0.000000   0.000000   0.000000
 -2.376650   0.926011   3.974396   0.017187  -0.245208   0.041127   0.112638   0.232565  -0.040470   0.297713  -0.312823  -0.030904  -0.281179  -0.216306   0.298413   0.084759  -0.278095  -0.013853   0.700135   0.593230   2.231035   0.034015   1.759883  -0.019144   0.116155  -1.025857  -2.256849   0.280467   0.230159  -0.184673   0.979734   0.394314  -2.114847   0.014422  -0.708519   0.010497   0.233261   0.033821   2.633945  -0.992611  -0.462371  -0.194789   2.854588   0.003342  -0.017764  -2.417861  -0.686533  -0.333804   0.199832   0.000863  -0.002433  -0.964707   0.326788   0.126272   2.195174  -0.003084   0.001635  -1.516620   0.440667  -0.154341   0.323541  -0.000019   0.001469
 -2.376593   0.926628   3.972832  -0.105490  -0.611216   0.095537   0.324148   0.498282  -0.090358   0.730050  -0.563370  -0.075991  -0.507663  -0.439384   0.604555   0.169235  -0.414046   0.585350   1.352023   1.350888   4.948167   0.078736   3.497620  -0.035154   0.268222  -1.425095  -3.842805   0.563992   0.430755  -1.047086   1.960975   0.733746  -4.783955   0.032679  -1.381973   0.018982   0.518165  -0.064135   4.574313  -1.806233  -0.934694  -0.547207   5.853485   0.007813  -0.037004  -4.672234  -1.333409  -0.675753   0.324442   0.001373  -0.003573  -1.912258   0.647326   0.398761   4.467841  -0.008580   0.000954  -2.923531   0.865291  -0.283250   0.596071  -0.000424   0.002089
 -2.376595   0.927113   3.971294  -0.250266  -1.046334   0.154875   0.554267   0.789395  -0.154986   1.179629  -0.748302  -0.143890  -0.704911  -0.651211   0.898002   0.247018  -0.446011   1.575081   1.944305   2.210444   7.980549   0.122894   5.150038  -0.046495   0.426770  -1.550057  -4.724588   0.830931   0.577224  -2.347225   2.914695   0.984802  -7.736441   0.050442  -2.019373   0.025113   0.804726  -0.232456   5.706125  -2.478998  -1.377014  -1.018837   8.718313   0.011871  -0.053309  -6.776183  -1.928086  -1.020337   0.445279   0.001866  -0.004437  -2.879044   0.940947   0.802708   6.597576  -0.015050  -0.000596  -4.234150   1.266735  -0.391333   0.847412  -0.001025   0.002288
 -2.376693   0.927197   3.969841  -0.387703  -1.518023   0.215553   0.786319   1.097036  -0.241736   1.612526  -0.882376  -0.240842  -0.885218  -0.850365   1.176389   0.318286  -0.408765   2.798968   2.473643   3.147488  11.228917   0.161230   6.709789  -0.053873   0.585524  -1.537618  -5.082155   1.076087   0.680444  -3.924045   3.814035   1.145871 -10.762911   0.065530  -2.622658   0.029151   1.088501  -0.457615   6.205139  -3.038368  -1.785812  -1.579269  11.418157   0.015067  -0.066017  -8.743432  -2.472994  -1.364344   0.551353   0.002234  -0.004906  -3.871473   1.204735   1.319503   8.561566  -0.021513  -0.001999  -5.458109   1.645440  -0.481711   1.070728  -0.001655   0.002249
 -2.376848   0.926666   3.968516  -0.511086  -2.001783   0.271248   1.013788   1.415347  -0.343647   2.020483  -0.974367  -0.347000  -1.052370  -1.037529   1.431594   0.385076  -0.318912   4.204319   2.911030   4.092625  14.454763   0.190545   8.180365  -0.057723   0.742133  -1.430202  -4.991607   1.296669   0.749964  -5.652729   4.657281   1.227816 -13.774895   0.077138  -3.193519   0.031502   1.366696  -0.728517   6.270224  -3.498972  -2.161971  -2.205944  13.958230   0.017484  -0.075227 -10.583386  -2.971491  -1.704985   0.643065   0.002476  -0.005054  -4.883117   1.436599   1.928286  10.368325  -0.027253  -0.002832  -6.601762   2.002145  -0.556970   1.267785  -0.002212   0.002101
 -2.377034   0.925366   3.967344  -0.619611  -2.482527   0.320593   1.232428   1.738365  -0.454444   2.401521  -1.033625  -0.457571  -1.207139  -1.212982   1.666586   0.446719  -0.200662   5.694390   3.264920   5.023169  17.593509   0.210343   9.561684  -0.058902   0.892453  -1.271114  -4.612302   1.493421   0.800374  -7.443211   5.444625   1.247652 -16.713628   0.085096  -3.731618   0.032481   1.636029  -1.027535   6.052352  -3.872050  -2.506922  -2.882507  16.348578   0.019238  -0.081338 -12.304202  -3.427076  -2.040017   0.722918   0.002613  -0.004980  -5.904579   1.635864   2.606872  12.030576  -0.031892  -0.003048  -7.670414   2.337554  -0.619416   1.442512  -0.002651   0.001914
 -2.377271   0.922674   3.965928  -0.597693  -3.104202   0.277532   1.323081   2.113664  -0.487878   2.763110  -0.943823  -0.523759  -1.337376  -1.232852   1.914620   0.610498   0.033868   6.578912   3.831039   6.003707  20.552626   0.230531  11.260243  -0.069121   1.020972  -1.360169  -3.470777   1.609115   0.792744  -8.527659   5.888080   1.126905 -19.582511   0.089154  -4.311119   0.031719   1.747854  -1.104590   4.799383  -4.492994  -2.857674  -3.399704  18.828376   0.017524  -0.090181 -13.894218  -3.838468  -2.227749   0.719538   0.002073  -0.003940  -6.876097   2.198353   3.358570  13.003549  -0.030597  -0.000791  -8.183338   2.953117  -0.520159   1.447594  -0.002149   0.001564
 -2.377488   0.918809   3.964423  -0.562868  -3.661704   0.207088   1.426195   2.462926  -0.498878   3.091817  -0.843621  -0.558248  -1.459660  -1.245760   2.149327   0.730507   0.331081   7.212102   4.294536   7.001147  23.182613   0.236664  12.880138  -0.075674   1.176159  -1.271227  -2.446478   1.692998   0.719308  -9.322359   6.278470   0.956416 -22.112314   0.088538  -4.871652   0.030521   1.847117  -1.242580   3.659355  -5.089117  -3.195842  -3.842086  21.154228   0.014370  -0.094018 -15.378887  -4.216842  -2.415140   0.720557   0.001666  -0.003162  -7.840459   2.723208   4.074828  13.816839  -0.028102   0.000968  -8.663917   3.532250  -0.420172   1.477013  -0.001865   0.001428
 -2.377665   0.913898   3.962940  -0.525144  -4.156139   0.127798   1.533821   2.795115  -0.496023   3.394016  -0.742410  -0.571958  -1.572525  -1.258001   2.368395   0.812041   0.654773   7.676014   4.669318   7.980103  25.542828   0.233512  14.408564  -0.078984   1.335782  -1.089151  -1.644929   1.756380   0.613821  -9.913914   6.626478   0.765288 -24.361852   0.084864  -5.404370   0.028881   1.945354  -1.423631   2.772334  -5.635824  -3.510161  -4.233518  23.324061   0.010808  -0.093780 -16.766658  -4.563764  -2.601014   0.721369   0.001339  -0.002538  -8.788434   3.202336   4.731506  14.543226  -0.025169   0.002285  -9.115473   4.071521  -0.322268   1.503752  -0.001604   0.001301
